<svg  width="10" height="18" viewBox="0 0 10 18" xmlns="http://www.w3.org/2000/svg">
<path d="M6.86087 4.78734C6.85054 5.3906 6.8587 5.99332 6.8587 6.6178C6.94464 6.62161 7.0159 6.62813 7.08771 6.62813C7.79324 6.62868 8.49931 6.62759 9.20538 6.62868C9.63294 6.62977 9.73847 6.73475 9.73902 7.1547C9.7401 7.96249 9.74065 8.77029 9.73902 9.57808C9.73793 9.95233 9.64491 10.047 9.26848 10.0486C8.54881 10.0519 7.82968 10.0497 7.11001 10.0497H6.85978V16.6763C6.85978 17.2753 6.80103 17.3329 6.19233 17.3329C5.41826 17.3329 4.64474 17.3335 3.87121 17.3324C3.44148 17.3318 3.34193 17.2334 3.34139 16.8069C3.34084 14.6555 3.34139 12.5035 3.34139 10.3516V10.0872C3.2587 10.0823 3.18744 10.0747 3.11618 10.0747C2.52598 10.0736 1.93523 10.0753 1.34502 10.0736C0.93541 10.072 0.836407 9.97681 0.83532 9.57101C0.832056 8.77681 0.8326 7.98262 0.834776 7.18842C0.835864 6.7663 0.93269 6.67165 1.34992 6.67111C1.93359 6.67056 2.51727 6.67111 3.10095 6.67111H3.34139C3.34139 6.57047 3.3403 6.49105 3.34139 6.41163C3.35553 5.63811 3.32779 4.86132 3.39306 4.09269C3.55843 2.15779 5.04619 0.757068 6.99034 0.684176C7.80357 0.653714 8.61844 0.671121 9.4333 0.673297C9.70257 0.674385 9.81789 0.790794 9.81952 1.06169C9.82387 1.86949 9.82387 2.67728 9.81952 3.48508C9.81789 3.75978 9.70475 3.86857 9.40991 3.87565C8.8605 3.8887 8.31055 3.88925 7.76114 3.89741C7.12361 3.9072 6.87229 4.14818 6.86087 4.78734Z" />
</svg>