<svg width="20" height="20" viewBox="0 0 20 20" fill="none" xmlns="http://www.w3.org/2000/svg">
                <path d="M18.3303 6.30975C18.3189 4.51344 17.5179 3.1504 15.9682 2.24307C15.2863 1.84362 14.5326 1.6708 13.7423 1.67039C11.2473 1.66835 8.7524 1.66224 6.25744 1.67202C4.22675 1.67976 2.5303 2.91929 1.88791 4.85501C1.79335 5.14033 1.7587 5.44604 1.69675 5.74237C1.68574 5.79495 1.67677 5.84794 1.66699 5.90052V14.1024C1.71183 14.3518 1.73629 14.607 1.80436 14.8499C2.3212 16.6947 3.51997 17.8279 5.38884 18.2501C5.55636 18.288 5.72878 18.306 5.89875 18.3333H14.1022C14.3521 18.2885 14.6072 18.264 14.8506 18.1959C16.6934 17.6799 17.8298 16.4832 18.2455 14.6163C18.3124 14.3176 18.3295 14.0029 18.3303 13.6956C18.3368 11.2336 18.3458 8.77169 18.3303 6.30975ZM10.0078 14.5687C7.4986 14.5829 5.43123 12.5188 5.43245 10.0006C5.43367 7.48488 7.46722 5.44848 9.99315 5.43422C12.5024 5.41995 14.5697 7.48366 14.5685 10.0018C14.5673 12.5176 12.5338 14.554 10.0078 14.5687ZM14.8441 6.54657C14.09 6.54413 13.4558 5.90908 13.4562 5.15664C13.4562 4.40175 14.0884 3.77241 14.8461 3.77322C15.6079 3.77363 16.232 4.39849 16.2299 5.15908C16.2283 5.91723 15.5973 6.54902 14.8441 6.54657Z" fill="currentColor" />
                <path d="M13.5843 10.0093C13.5778 11.991 11.9604 13.5974 9.98519 13.5844C8.00667 13.5713 6.41049 11.9654 6.41701 9.99377C6.42353 8.0124 8.04132 6.40521 10.0166 6.41866C11.9951 6.43171 13.5909 8.03767 13.5843 10.0093Z" fill="currentColor" />
              </svg>