<svg width="24" height="24" viewBox="0 0 24 24" fill="none" xmlns="http://www.w3.org/2000/svg">
<path d="M21.9947 22.0006H17.8553C17.8537 19.6779 17.8584 17.3552 17.8459 15.0324C17.8438 14.5989 17.7995 14.1617 17.7317 13.7328C17.5637 12.6721 16.9892 12.0784 15.988 11.9855C14.6253 11.8593 13.646 12.4024 13.3643 13.8351C13.261 14.3604 13.2213 14.9056 13.2171 15.4425C13.2005 17.6285 13.2088 19.8146 13.2078 22.0006H9.06836C9.06888 17.6411 9.0694 13.2815 9.07045 8.92193V8.6595H13.0476V10.5101C13.1091 10.4391 13.1368 10.4156 13.154 10.3864C13.8573 9.22036 14.918 8.5849 16.2348 8.38142C17.2433 8.22543 18.2487 8.30838 19.2165 8.65585C20.489 9.11289 21.2246 10.0603 21.6065 11.3203C21.8862 12.2443 21.9811 13.1954 21.9858 14.1533C21.9994 16.7693 21.9931 19.3847 21.9947 22.0006Z" fill="black"/>
<path d="M6.49103 22.0003H2.3125C2.31772 21.91 2.32763 21.8192 2.32763 21.729C2.32815 17.4659 2.32815 13.2029 2.32815 8.94036V8.65967H6.4785V8.92001C6.4785 13.1893 6.4785 17.4586 6.47903 21.7285C6.47903 21.8187 6.48685 21.9095 6.49103 22.0003Z" fill="black"/>
<path d="M6.80251 4.40964C6.80095 5.62057 5.85088 6.69951 4.68899 6.80959C3.40815 6.93115 2.28434 6.10578 2.04278 4.86772C2.0313 4.81085 2.01409 4.75502 2 4.6992V4.1133C2.01409 4.05747 2.0313 4.00165 2.04226 3.9453C2.27808 2.74428 3.42223 1.8876 4.62482 2.0123C5.86497 2.14116 6.80356 3.17419 6.80251 4.40964Z" fill="black"/>
</svg>
