<svg width="20" height="20" viewBox="0 0 20 20" fill="none" xmlns="http://www.w3.org/2000/svg">
<path d="M16.9864 16.9614C15.1309 14.254 13.2738 11.5475 11.4174 8.84056C11.3932 8.8053 11.3709 8.76859 11.3407 8.72175C11.6659 8.3427 11.9894 7.96527 12.3133 7.58803C13.9966 5.62749 15.6801 3.66677 17.3634 1.70605C17.3739 1.69375 17.3822 1.67983 17.3916 1.66663H15.9621C14.2149 3.70113 12.4676 5.73582 10.6926 7.80269C10.6713 7.76417 10.6561 7.73108 10.6358 7.7016C9.27279 5.71339 7.9094 3.72555 6.54637 1.73734C6.53136 1.71527 6.52069 1.69032 6.50785 1.66663H1.66699C1.70895 1.73535 1.74765 1.80624 1.79304 1.87243C3.83894 4.85673 5.88538 7.84067 7.93182 10.8248C7.95316 10.8559 7.9736 10.8877 8.00344 10.9328C7.83724 11.1277 7.67014 11.3246 7.50177 11.5207C5.59928 13.7362 3.69661 15.9516 1.79431 18.1673C1.7491 18.2201 1.70931 18.2778 1.66699 18.3333H3.09657C3.744 17.5757 4.39015 16.8171 5.03885 16.0606C6.19209 14.7157 7.34697 13.3718 8.50112 12.0278C8.54326 11.9786 8.58666 11.9307 8.63694 11.8733C8.66949 11.9128 8.69842 11.9431 8.72193 11.9773C10.1528 14.0634 11.5833 16.1496 13.0136 18.2362C13.0347 18.2671 13.0517 18.3009 13.0707 18.3333H17.9114C17.6032 17.8759 17.2981 17.4164 16.9864 16.9614ZM15.768 17.2972C15.151 17.2978 14.5339 17.2945 13.9169 17.3003C13.802 17.3012 13.7313 17.2685 13.6642 17.1725C10.3501 12.4177 7.0332 7.66453 3.71687 2.9112C3.68631 2.86744 3.65846 2.82168 3.60963 2.74681C4.21492 2.74681 4.78856 2.7696 5.3593 2.73813C5.69694 2.71951 5.88303 2.83832 6.07418 3.11357C9.31257 7.77593 12.5638 12.4294 15.8121 17.0849C15.8543 17.1453 15.895 17.2066 15.9503 17.2876C15.8709 17.292 15.8196 17.2971 15.768 17.2972Z" fill="currentColor" />
</svg>