<svg className="text-gray-600 transition duration-200 group-hover:text-orange-500" width="20" height="20" viewBox="0 0 20 20" fill="none" xmlns="http://www.w3.org/2000/svg">
<path d="M18.8681 5.72926C18.6677 4.62179 17.9908 3.91087 16.9326 3.71732C16.4959 3.63715 16.0513 3.57875 15.6078 3.5587C13.727 3.47367 11.8453 3.40696 9.96395 3.33337C9.96337 3.35284 9.9628 3.37231 9.96223 3.39178C9.52961 3.39178 9.0967 3.38548 8.66436 3.39293C6.87059 3.42299 5.07654 3.44275 3.29222 3.6655C2.18246 3.80379 1.41371 4.46375 1.18265 5.56091C1.05352 6.17362 0.983089 6.8018 0.932125 7.42683C0.823039 8.76363 0.796125 10.1047 0.891182 11.4435C0.950163 12.2716 1.02575 13.1022 1.16347 13.9202C1.34413 14.9916 2.08254 15.6999 3.12215 15.8542C3.73773 15.9456 4.35932 16.0234 4.98063 16.0438C6.88777 16.1056 8.79607 16.1629 10.7041 16.1723C12.6061 16.1821 14.5089 16.1368 16.4035 15.9378C16.8919 15.8863 17.3732 15.8084 17.8001 15.535C18.5062 15.0829 18.8274 14.4035 18.9044 13.6055C19.0084 12.5258 19.1137 11.4435 19.1492 10.3604C19.2005 8.81059 19.1449 7.26134 18.8681 5.72926ZM8.18679 12.5184V7.04545C9.77526 7.95851 11.3471 8.86213 12.9468 9.78177C11.3494 10.7003 9.77784 11.6036 8.18679 12.5184Z" fill="currentColor" />
</svg>