<svg width="32" height="33" viewBox="0 0 32 33" fill="none" xmlns="http://www.w3.org/2000/svg">
<path d="M26.7424 22.9L26.8757 23.0333C27.1784 23.3386 27.5534 23.5623 27.9657 23.6838C28.3781 23.8052 28.8145 23.8204 29.2344 23.728C29.6474 23.6413 30.032 23.4521 30.3529 23.1779C30.6737 22.9036 30.9204 22.5532 31.0704 22.1586C31.8065 20.2257 32.1584 18.1677 32.1064 16.1C31.9563 12.0386 30.2858 8.18194 27.4261 5.29427C24.5663 2.40661 20.726 0.698781 16.6664 0.509298C14.5197 0.434655 12.3799 0.793018 10.3747 1.56302C8.36949 2.33302 6.53984 3.4989 4.99484 4.99114C3.44984 6.48339 2.22112 8.27144 1.38194 10.2487C0.542765 12.226 0.110307 14.352 0.110352 16.5C0.115292 20.7419 1.80259 24.8087 4.8021 27.8082C7.80161 30.8077 11.8684 32.495 16.1104 32.5C16.561 32.5 17.0037 32.4706 17.4437 32.4333C17.7775 32.4052 18.0886 32.2524 18.3149 32.0053C18.5412 31.7582 18.6662 31.435 18.665 31.1L18.6224 26.316C18.6116 25.3706 18.8828 24.4435 19.4013 23.6529C19.9199 22.8624 20.6623 22.2444 21.5338 21.8778C22.4053 21.5112 23.3662 21.4126 24.2939 21.5947C25.2217 21.7767 26.0741 22.2312 26.7424 22.9ZM22.8197 11.2333C23.202 11.1319 23.6058 11.146 23.98 11.2741C24.3543 11.4021 24.6821 11.6382 24.9222 11.9526C25.1622 12.267 25.3037 12.6455 25.3286 13.0402C25.3536 13.435 25.2609 13.8282 25.0624 14.1703C24.8639 14.5124 24.5683 14.788 24.2132 14.9621C23.8581 15.1363 23.4593 15.2012 23.0672 15.1487C22.6752 15.0962 22.3075 14.9287 22.0107 14.6672C21.7139 14.4058 21.5012 14.0622 21.3997 13.68C21.3322 13.4261 21.3155 13.1614 21.3503 12.901C21.3852 12.6406 21.471 12.3897 21.6028 12.1625C21.7347 11.9353 21.91 11.7363 22.1188 11.5768C22.3276 11.4174 22.5658 11.3007 22.8197 11.2333ZM10.513 23.1C10.1307 23.2014 9.72691 23.1872 9.35267 23.0592C8.97843 22.9311 8.65056 22.695 8.41051 22.3806C8.17047 22.0663 8.02902 21.6878 8.00406 21.2931C7.97911 20.8983 8.07176 20.505 8.2703 20.1629C8.46885 19.8208 8.76437 19.5453 9.1195 19.3711C9.47464 19.197 9.87344 19.1321 10.2655 19.1845C10.6575 19.237 11.0252 19.4046 11.322 19.666C11.6188 19.9275 11.8315 20.271 11.933 20.6533C12.0005 20.9072 12.0173 21.1719 11.9824 21.4323C11.9475 21.6926 11.8617 21.9436 11.7299 22.1708C11.598 22.398 11.4227 22.597 11.2139 22.7564C11.0051 22.9159 10.7669 23.0326 10.513 23.1ZM10.513 15.1C10.1307 15.2014 9.72691 15.1872 9.35267 15.0592C8.97843 14.9311 8.65056 14.695 8.41051 14.3806C8.17047 14.0663 8.02902 13.6878 8.00406 13.2931C7.97911 12.8983 8.07176 12.505 8.2703 12.1629C8.46885 11.8208 8.76437 11.5453 9.1195 11.3711C9.47464 11.197 9.87344 11.1321 10.2655 11.1845C10.6575 11.237 11.0252 11.4046 11.322 11.666C11.6188 11.9275 11.8315 12.271 11.933 12.6533C12.0005 12.9072 12.0173 13.1719 11.9824 13.4323C11.9475 13.6926 11.8617 13.9436 11.7299 14.1708C11.598 14.398 11.4227 14.597 11.2139 14.7564C11.0051 14.9159 10.7669 15.0326 10.513 15.1ZM17.1797 11.1C16.7974 11.2014 16.3936 11.1872 16.0193 11.0592C15.6451 10.9311 15.3172 10.695 15.0772 10.3806C14.8371 10.0663 14.6957 9.6878 14.6707 9.29305C14.6458 8.89831 14.7384 8.50502 14.937 8.16293C15.1355 7.82084 15.431 7.5453 15.7862 7.37115C16.1413 7.197 16.5401 7.13206 16.9321 7.18455C17.3242 7.23703 17.6918 7.40459 17.9887 7.66602C18.2855 7.92745 18.4981 8.27102 18.5997 8.6533C18.6671 8.90719 18.6839 9.17188 18.6491 9.43225C18.6142 9.69263 18.5284 9.94359 18.3965 10.1708C18.2647 10.398 18.0893 10.597 17.8805 10.7564C17.6717 10.9159 17.4336 11.0326 17.1797 11.1Z" fill="#FF782D"/>
</svg>
